<mxfile host="Electron" agent="Mozilla/5.0 (Windows NT 10.0; Win64; x64) AppleWebKit/537.36 (KHTML, like Gecko) draw.io/26.0.9 Chrome/128.0.6613.186 Electron/32.2.5 Safari/537.36" version="26.0.9">
  <diagram id="7kYA1P_cA_H83jZf2Vmk" name="Page-1">
    <mxGraphModel dx="2625" dy="1553" grid="1" gridSize="10" guides="1" tooltips="1" connect="1" arrows="1" fold="1" page="1" pageScale="1" pageWidth="1600" pageHeight="1300" math="0" shadow="0">
      <root>
        <mxCell id="0" />
        <mxCell id="1" parent="0" />
        <mxCell id="swAFyOteLmv79kuXvs0G-2" value="" style="endArrow=classic;html=1;rounded=0;" edge="1" parent="1">
          <mxGeometry width="50" height="50" relative="1" as="geometry">
            <mxPoint x="20" y="200" as="sourcePoint" />
            <mxPoint x="160" y="200" as="targetPoint" />
          </mxGeometry>
        </mxCell>
        <mxCell id="swAFyOteLmv79kuXvs0G-3" value="" style="endArrow=none;html=1;rounded=0;" edge="1" parent="1">
          <mxGeometry width="50" height="50" relative="1" as="geometry">
            <mxPoint x="70" y="210" as="sourcePoint" />
            <mxPoint x="90" y="190" as="targetPoint" />
          </mxGeometry>
        </mxCell>
        <mxCell id="swAFyOteLmv79kuXvs0G-4" value="" style="endArrow=classic;html=1;rounded=0;" edge="1" parent="1">
          <mxGeometry width="50" height="50" relative="1" as="geometry">
            <mxPoint x="20" y="400" as="sourcePoint" />
            <mxPoint x="160" y="400" as="targetPoint" />
          </mxGeometry>
        </mxCell>
        <mxCell id="swAFyOteLmv79kuXvs0G-5" value="" style="endArrow=none;html=1;rounded=0;" edge="1" parent="1">
          <mxGeometry width="50" height="50" relative="1" as="geometry">
            <mxPoint x="70" y="410" as="sourcePoint" />
            <mxPoint x="90" y="390" as="targetPoint" />
          </mxGeometry>
        </mxCell>
        <mxCell id="swAFyOteLmv79kuXvs0G-8" value="a" style="text;strokeColor=none;align=center;fillColor=none;html=1;verticalAlign=middle;whiteSpace=wrap;rounded=0;fontStyle=1" vertex="1" parent="1">
          <mxGeometry x="10" y="190" width="10" height="20" as="geometry" />
        </mxCell>
        <mxCell id="swAFyOteLmv79kuXvs0G-11" value="b" style="text;strokeColor=none;align=center;fillColor=none;html=1;verticalAlign=middle;whiteSpace=wrap;rounded=0;fontStyle=1" vertex="1" parent="1">
          <mxGeometry x="10" y="390" width="10" height="20" as="geometry" />
        </mxCell>
        <mxCell id="swAFyOteLmv79kuXvs0G-12" value="2" style="text;strokeColor=none;align=center;fillColor=none;html=1;verticalAlign=middle;whiteSpace=wrap;rounded=0;fontStyle=1" vertex="1" parent="1">
          <mxGeometry x="80" y="170" width="10" height="20" as="geometry" />
        </mxCell>
        <mxCell id="swAFyOteLmv79kuXvs0G-13" value="2" style="text;strokeColor=none;align=center;fillColor=none;html=1;verticalAlign=middle;whiteSpace=wrap;rounded=0;fontStyle=1" vertex="1" parent="1">
          <mxGeometry x="80" y="370" width="10" height="20" as="geometry" />
        </mxCell>
        <mxCell id="swAFyOteLmv79kuXvs0G-14" value="" style="endArrow=classic;html=1;rounded=0;entryX=0;entryY=0.5;entryDx=0;entryDy=0;" edge="1" parent="1" target="swAFyOteLmv79kuXvs0G-18">
          <mxGeometry width="50" height="50" relative="1" as="geometry">
            <mxPoint x="150" y="200" as="sourcePoint" />
            <mxPoint x="220" y="199.62" as="targetPoint" />
            <Array as="points">
              <mxPoint x="160" y="200" />
            </Array>
          </mxGeometry>
        </mxCell>
        <mxCell id="swAFyOteLmv79kuXvs0G-16" value="" style="endArrow=classic;html=1;rounded=0;entryX=0;entryY=0.5;entryDx=0;entryDy=0;" edge="1" parent="1" target="swAFyOteLmv79kuXvs0G-41">
          <mxGeometry width="50" height="50" relative="1" as="geometry">
            <mxPoint x="160" y="280" as="sourcePoint" />
            <mxPoint x="330" y="280" as="targetPoint" />
          </mxGeometry>
        </mxCell>
        <mxCell id="swAFyOteLmv79kuXvs0G-17" value="" style="endArrow=none;html=1;rounded=0;" edge="1" parent="1">
          <mxGeometry width="50" height="50" relative="1" as="geometry">
            <mxPoint x="160" y="280" as="sourcePoint" />
            <mxPoint x="160" y="200" as="targetPoint" />
          </mxGeometry>
        </mxCell>
        <mxCell id="swAFyOteLmv79kuXvs0G-18" value="" style="triangle;whiteSpace=wrap;html=1;" vertex="1" parent="1">
          <mxGeometry x="257" y="170" width="70" height="60" as="geometry" />
        </mxCell>
        <mxCell id="swAFyOteLmv79kuXvs0G-19" value="" style="ellipse;whiteSpace=wrap;html=1;aspect=fixed;" vertex="1" parent="1">
          <mxGeometry x="328.2450980392157" y="193.25999999999993" width="12.75" height="12.75" as="geometry" />
        </mxCell>
        <mxCell id="swAFyOteLmv79kuXvs0G-22" value="" style="endArrow=classic;html=1;rounded=0;entryX=0;entryY=0.5;entryDx=0;entryDy=0;" edge="1" parent="1" target="swAFyOteLmv79kuXvs0G-43">
          <mxGeometry width="50" height="50" relative="1" as="geometry">
            <mxPoint x="150" y="400" as="sourcePoint" />
            <mxPoint x="329.9950980392157" y="400" as="targetPoint" />
          </mxGeometry>
        </mxCell>
        <mxCell id="swAFyOteLmv79kuXvs0G-23" value="" style="endArrow=classic;html=1;rounded=0;entryX=0;entryY=0.5;entryDx=0;entryDy=0;" edge="1" parent="1" target="swAFyOteLmv79kuXvs0G-45">
          <mxGeometry width="50" height="50" relative="1" as="geometry">
            <mxPoint x="160" y="479.94" as="sourcePoint" />
            <mxPoint x="257" y="481.31" as="targetPoint" />
            <Array as="points">
              <mxPoint x="257" y="480" />
            </Array>
          </mxGeometry>
        </mxCell>
        <mxCell id="swAFyOteLmv79kuXvs0G-24" value="" style="endArrow=none;html=1;rounded=0;" edge="1" parent="1">
          <mxGeometry width="50" height="50" relative="1" as="geometry">
            <mxPoint x="159" y="480" as="sourcePoint" />
            <mxPoint x="159" y="400" as="targetPoint" />
          </mxGeometry>
        </mxCell>
        <mxCell id="swAFyOteLmv79kuXvs0G-30" value="a[1]" style="text;strokeColor=none;align=center;fillColor=none;html=1;verticalAlign=middle;whiteSpace=wrap;rounded=0;fontStyle=1" vertex="1" parent="1">
          <mxGeometry x="170" y="178" width="10" height="20" as="geometry" />
        </mxCell>
        <mxCell id="swAFyOteLmv79kuXvs0G-31" value="a[0]" style="text;strokeColor=none;align=center;fillColor=none;html=1;verticalAlign=middle;whiteSpace=wrap;rounded=0;fontStyle=1" vertex="1" parent="1">
          <mxGeometry x="170" y="256.63" width="10" height="20" as="geometry" />
        </mxCell>
        <mxCell id="swAFyOteLmv79kuXvs0G-33" value="b[1]" style="text;strokeColor=none;align=center;fillColor=none;html=1;verticalAlign=middle;whiteSpace=wrap;rounded=0;fontStyle=1" vertex="1" parent="1">
          <mxGeometry x="170" y="373.63" width="10" height="20" as="geometry" />
        </mxCell>
        <mxCell id="swAFyOteLmv79kuXvs0G-34" value="b[0]" style="text;strokeColor=none;align=center;fillColor=none;html=1;verticalAlign=middle;whiteSpace=wrap;rounded=0;fontStyle=1" vertex="1" parent="1">
          <mxGeometry x="170" y="455.63" width="10" height="20" as="geometry" />
        </mxCell>
        <mxCell id="swAFyOteLmv79kuXvs0G-35" value="NOT" style="text;strokeColor=none;align=center;fillColor=none;html=1;verticalAlign=middle;whiteSpace=wrap;rounded=0;fontStyle=1" vertex="1" parent="1">
          <mxGeometry x="277" y="190" width="10" height="20" as="geometry" />
        </mxCell>
        <mxCell id="swAFyOteLmv79kuXvs0G-41" value="" style="triangle;whiteSpace=wrap;html=1;" vertex="1" parent="1">
          <mxGeometry x="257" y="250" width="70" height="60" as="geometry" />
        </mxCell>
        <mxCell id="swAFyOteLmv79kuXvs0G-42" value="NOT" style="text;strokeColor=none;align=center;fillColor=none;html=1;verticalAlign=middle;whiteSpace=wrap;rounded=0;fontStyle=1" vertex="1" parent="1">
          <mxGeometry x="277" y="270" width="10" height="20" as="geometry" />
        </mxCell>
        <mxCell id="swAFyOteLmv79kuXvs0G-43" value="" style="triangle;whiteSpace=wrap;html=1;" vertex="1" parent="1">
          <mxGeometry x="257" y="370" width="70" height="60" as="geometry" />
        </mxCell>
        <mxCell id="swAFyOteLmv79kuXvs0G-44" value="NOT" style="text;strokeColor=none;align=center;fillColor=none;html=1;verticalAlign=middle;whiteSpace=wrap;rounded=0;fontStyle=1" vertex="1" parent="1">
          <mxGeometry x="277" y="390" width="10" height="20" as="geometry" />
        </mxCell>
        <mxCell id="swAFyOteLmv79kuXvs0G-45" value="" style="triangle;whiteSpace=wrap;html=1;" vertex="1" parent="1">
          <mxGeometry x="257" y="450.63" width="70" height="60" as="geometry" />
        </mxCell>
        <mxCell id="swAFyOteLmv79kuXvs0G-46" value="NOT" style="text;strokeColor=none;align=center;fillColor=none;html=1;verticalAlign=middle;whiteSpace=wrap;rounded=0;fontStyle=1" vertex="1" parent="1">
          <mxGeometry x="277" y="470.63" width="10" height="20" as="geometry" />
        </mxCell>
        <mxCell id="swAFyOteLmv79kuXvs0G-50" value="" style="ellipse;whiteSpace=wrap;html=1;aspect=fixed;" vertex="1" parent="1">
          <mxGeometry x="328.2450980392157" y="273.25999999999993" width="12.75" height="12.75" as="geometry" />
        </mxCell>
        <mxCell id="swAFyOteLmv79kuXvs0G-52" value="" style="ellipse;whiteSpace=wrap;html=1;aspect=fixed;" vertex="1" parent="1">
          <mxGeometry x="328.2450980392157" y="393.25999999999993" width="12.75" height="12.75" as="geometry" />
        </mxCell>
        <mxCell id="swAFyOteLmv79kuXvs0G-53" value="" style="ellipse;whiteSpace=wrap;html=1;aspect=fixed;" vertex="1" parent="1">
          <mxGeometry x="328.2450980392157" y="474.25999999999993" width="12.75" height="12.75" as="geometry" />
        </mxCell>
        <mxCell id="swAFyOteLmv79kuXvs0G-67" value="~a[0]" style="text;strokeColor=none;align=center;fillColor=none;html=1;verticalAlign=middle;whiteSpace=wrap;rounded=0;fontStyle=1" vertex="1" parent="1">
          <mxGeometry x="304.62" y="248.63" width="60" height="20" as="geometry" />
        </mxCell>
        <mxCell id="swAFyOteLmv79kuXvs0G-61" value="~a[1]" style="text;strokeColor=none;align=center;fillColor=none;html=1;verticalAlign=middle;whiteSpace=wrap;rounded=0;fontStyle=1" vertex="1" parent="1">
          <mxGeometry x="304.62" y="170" width="60" height="20" as="geometry" />
        </mxCell>
        <mxCell id="swAFyOteLmv79kuXvs0G-69" value="~b[1]" style="text;strokeColor=none;align=center;fillColor=none;html=1;verticalAlign=middle;whiteSpace=wrap;rounded=0;fontStyle=1" vertex="1" parent="1">
          <mxGeometry x="304.62" y="365.63" width="60" height="20" as="geometry" />
        </mxCell>
        <mxCell id="swAFyOteLmv79kuXvs0G-70" value="~b[0]" style="text;strokeColor=none;align=center;fillColor=none;html=1;verticalAlign=middle;whiteSpace=wrap;rounded=0;fontStyle=1" vertex="1" parent="1">
          <mxGeometry x="304.62" y="447.63" width="60" height="20" as="geometry" />
        </mxCell>
        <mxCell id="swAFyOteLmv79kuXvs0G-72" value="" style="endArrow=none;html=1;rounded=0;labelBorderColor=none;curved=0;startArrow=oval;startFill=1;" edge="1" parent="1">
          <mxGeometry width="50" height="50" relative="1" as="geometry">
            <mxPoint x="200" y="200" as="sourcePoint" />
            <mxPoint x="200" y="40" as="targetPoint" />
          </mxGeometry>
        </mxCell>
        <mxCell id="swAFyOteLmv79kuXvs0G-74" value="" style="endArrow=none;html=1;rounded=0;startArrow=oval;startFill=1;" edge="1" parent="1">
          <mxGeometry width="50" height="50" relative="1" as="geometry">
            <mxPoint x="220" y="280" as="sourcePoint" />
            <mxPoint x="220" y="80" as="targetPoint" />
          </mxGeometry>
        </mxCell>
        <mxCell id="swAFyOteLmv79kuXvs0G-75" value="" style="endArrow=classic;html=1;rounded=0;" edge="1" parent="1">
          <mxGeometry width="50" height="50" relative="1" as="geometry">
            <mxPoint x="200" y="40" as="sourcePoint" />
            <mxPoint x="640" y="40" as="targetPoint" />
          </mxGeometry>
        </mxCell>
        <mxCell id="swAFyOteLmv79kuXvs0G-76" value="" style="endArrow=classic;html=1;rounded=0;" edge="1" parent="1">
          <mxGeometry width="50" height="50" relative="1" as="geometry">
            <mxPoint x="220" y="80" as="sourcePoint" />
            <mxPoint x="640" y="80" as="targetPoint" />
          </mxGeometry>
        </mxCell>
        <mxCell id="swAFyOteLmv79kuXvs0G-81" value="" style="shape=or;whiteSpace=wrap;html=1;" vertex="1" parent="1">
          <mxGeometry x="640" y="420" width="55" height="75.63" as="geometry" />
        </mxCell>
        <mxCell id="swAFyOteLmv79kuXvs0G-82" value="AND" style="text;strokeColor=none;align=center;fillColor=none;html=1;verticalAlign=middle;whiteSpace=wrap;rounded=0;fontStyle=1" vertex="1" parent="1">
          <mxGeometry x="660" y="447.82" width="10" height="20" as="geometry" />
        </mxCell>
        <mxCell id="swAFyOteLmv79kuXvs0G-93" value="" style="shape=or;whiteSpace=wrap;html=1;" vertex="1" parent="1">
          <mxGeometry x="640" y="20" width="55" height="75.63" as="geometry" />
        </mxCell>
        <mxCell id="swAFyOteLmv79kuXvs0G-94" value="AND" style="text;strokeColor=none;align=center;fillColor=none;html=1;verticalAlign=middle;whiteSpace=wrap;rounded=0;fontStyle=1" vertex="1" parent="1">
          <mxGeometry x="660" y="47.81999999999999" width="10" height="20" as="geometry" />
        </mxCell>
        <mxCell id="swAFyOteLmv79kuXvs0G-109" value="" style="shape=or;whiteSpace=wrap;html=1;" vertex="1" parent="1">
          <mxGeometry x="640" y="118" width="55" height="75.63" as="geometry" />
        </mxCell>
        <mxCell id="swAFyOteLmv79kuXvs0G-110" value="AND" style="text;strokeColor=none;align=center;fillColor=none;html=1;verticalAlign=middle;whiteSpace=wrap;rounded=0;fontStyle=1" vertex="1" parent="1">
          <mxGeometry x="660" y="145.82" width="10" height="20" as="geometry" />
        </mxCell>
        <mxCell id="swAFyOteLmv79kuXvs0G-111" value="" style="shape=or;whiteSpace=wrap;html=1;" vertex="1" parent="1">
          <mxGeometry x="640" y="214.37" width="55" height="75.63" as="geometry" />
        </mxCell>
        <mxCell id="swAFyOteLmv79kuXvs0G-112" value="AND" style="text;strokeColor=none;align=center;fillColor=none;html=1;verticalAlign=middle;whiteSpace=wrap;rounded=0;fontStyle=1" vertex="1" parent="1">
          <mxGeometry x="660" y="242.19" width="10" height="20" as="geometry" />
        </mxCell>
        <mxCell id="swAFyOteLmv79kuXvs0G-113" value="" style="shape=or;whiteSpace=wrap;html=1;" vertex="1" parent="1">
          <mxGeometry x="640" y="310" width="55" height="75.63" as="geometry" />
        </mxCell>
        <mxCell id="swAFyOteLmv79kuXvs0G-114" value="AND" style="text;strokeColor=none;align=center;fillColor=none;html=1;verticalAlign=middle;whiteSpace=wrap;rounded=0;fontStyle=1" vertex="1" parent="1">
          <mxGeometry x="660" y="337.82" width="10" height="20" as="geometry" />
        </mxCell>
        <mxCell id="swAFyOteLmv79kuXvs0G-127" value="" style="endArrow=classic;html=1;rounded=0;entryX=0;entryY=0.25;entryDx=0;entryDy=0;entryPerimeter=0;" edge="1" parent="1" target="swAFyOteLmv79kuXvs0G-113">
          <mxGeometry width="50" height="50" relative="1" as="geometry">
            <mxPoint x="220" y="330" as="sourcePoint" />
            <mxPoint x="310" y="330" as="targetPoint" />
          </mxGeometry>
        </mxCell>
        <mxCell id="swAFyOteLmv79kuXvs0G-128" value="" style="endArrow=none;html=1;rounded=0;" edge="1" parent="1">
          <mxGeometry width="50" height="50" relative="1" as="geometry">
            <mxPoint x="220" y="329.81" as="sourcePoint" />
            <mxPoint x="220" y="279.81" as="targetPoint" />
          </mxGeometry>
        </mxCell>
        <mxCell id="swAFyOteLmv79kuXvs0G-130" value="" style="endArrow=none;html=1;rounded=0;startArrow=oval;startFill=1;" edge="1" parent="1">
          <mxGeometry width="50" height="50" relative="1" as="geometry">
            <mxPoint x="520" y="40" as="sourcePoint" />
            <mxPoint x="520" y="230" as="targetPoint" />
          </mxGeometry>
        </mxCell>
        <mxCell id="swAFyOteLmv79kuXvs0G-133" value="" style="endArrow=classic;html=1;rounded=0;" edge="1" parent="1">
          <mxGeometry width="50" height="50" relative="1" as="geometry">
            <mxPoint x="520" y="230" as="sourcePoint" />
            <mxPoint x="640" y="230" as="targetPoint" />
          </mxGeometry>
        </mxCell>
        <mxCell id="swAFyOteLmv79kuXvs0G-135" value="" style="endArrow=classic;html=1;rounded=0;entryX=0;entryY=0.793;entryDx=0;entryDy=0;entryPerimeter=0;exitX=1;exitY=0.5;exitDx=0;exitDy=0;" edge="1" parent="1" source="swAFyOteLmv79kuXvs0G-53" target="swAFyOteLmv79kuXvs0G-81">
          <mxGeometry width="50" height="50" relative="1" as="geometry">
            <mxPoint x="412.75" y="480.33000000000004" as="sourcePoint" />
            <mxPoint x="630" y="480" as="targetPoint" />
          </mxGeometry>
        </mxCell>
        <mxCell id="swAFyOteLmv79kuXvs0G-136" value="" style="endArrow=none;html=1;rounded=0;" edge="1" parent="1">
          <mxGeometry width="50" height="50" relative="1" as="geometry">
            <mxPoint x="497.75" y="399.85" as="sourcePoint" />
            <mxPoint x="561" y="400" as="targetPoint" />
            <Array as="points">
              <mxPoint x="341" y="400" />
            </Array>
          </mxGeometry>
        </mxCell>
        <mxCell id="swAFyOteLmv79kuXvs0G-137" value="" style="endArrow=classic;html=1;rounded=0;" edge="1" parent="1">
          <mxGeometry width="50" height="50" relative="1" as="geometry">
            <mxPoint x="560" y="370" as="sourcePoint" />
            <mxPoint x="640" y="370" as="targetPoint" />
          </mxGeometry>
        </mxCell>
        <mxCell id="swAFyOteLmv79kuXvs0G-138" value="" style="endArrow=classic;html=1;rounded=0;" edge="1" parent="1">
          <mxGeometry width="50" height="50" relative="1" as="geometry">
            <mxPoint x="560" y="430" as="sourcePoint" />
            <mxPoint x="640" y="430" as="targetPoint" />
          </mxGeometry>
        </mxCell>
        <mxCell id="swAFyOteLmv79kuXvs0G-139" value="" style="endArrow=none;html=1;rounded=0;" edge="1" parent="1">
          <mxGeometry width="50" height="50" relative="1" as="geometry">
            <mxPoint x="560" y="400" as="sourcePoint" />
            <mxPoint x="560" y="370" as="targetPoint" />
          </mxGeometry>
        </mxCell>
        <mxCell id="swAFyOteLmv79kuXvs0G-141" value="" style="endArrow=none;html=1;rounded=0;startArrow=oval;startFill=1;" edge="1" parent="1">
          <mxGeometry width="50" height="50" relative="1" as="geometry">
            <mxPoint x="560" y="400" as="sourcePoint" />
            <mxPoint x="560" y="430" as="targetPoint" />
          </mxGeometry>
        </mxCell>
        <mxCell id="swAFyOteLmv79kuXvs0G-143" value="" style="endArrow=classic;html=1;rounded=0;" edge="1" parent="1">
          <mxGeometry width="50" height="50" relative="1" as="geometry">
            <mxPoint x="520" y="270.35" as="sourcePoint" />
            <mxPoint x="640" y="270.35" as="targetPoint" />
          </mxGeometry>
        </mxCell>
        <mxCell id="swAFyOteLmv79kuXvs0G-147" value="" style="endArrow=none;html=1;rounded=0;startArrow=oval;startFill=1;" edge="1" parent="1">
          <mxGeometry width="50" height="50" relative="1" as="geometry">
            <mxPoint x="520" y="399.63" as="sourcePoint" />
            <mxPoint x="520" y="270" as="targetPoint" />
          </mxGeometry>
        </mxCell>
        <mxCell id="swAFyOteLmv79kuXvs0G-149" value="" style="endArrow=none;html=1;rounded=0;startArrow=oval;startFill=1;" edge="1" parent="1">
          <mxGeometry width="50" height="50" relative="1" as="geometry">
            <mxPoint x="570" y="40" as="sourcePoint" />
            <mxPoint x="570" y="130" as="targetPoint" />
          </mxGeometry>
        </mxCell>
        <mxCell id="swAFyOteLmv79kuXvs0G-150" value="" style="endArrow=classic;html=1;rounded=0;" edge="1" parent="1">
          <mxGeometry width="50" height="50" relative="1" as="geometry">
            <mxPoint x="570" y="130" as="sourcePoint" />
            <mxPoint x="640" y="130" as="targetPoint" />
          </mxGeometry>
        </mxCell>
        <mxCell id="swAFyOteLmv79kuXvs0G-151" value="" style="endArrow=none;html=1;rounded=0;startArrow=oval;startFill=1;" edge="1" parent="1">
          <mxGeometry width="50" height="50" relative="1" as="geometry">
            <mxPoint x="490" y="480" as="sourcePoint" />
            <mxPoint x="490" y="170" as="targetPoint" />
          </mxGeometry>
        </mxCell>
        <mxCell id="swAFyOteLmv79kuXvs0G-152" value="" style="endArrow=classic;html=1;rounded=0;entryX=-0.012;entryY=0.685;entryDx=0;entryDy=0;entryPerimeter=0;" edge="1" parent="1" target="swAFyOteLmv79kuXvs0G-109">
          <mxGeometry width="50" height="50" relative="1" as="geometry">
            <mxPoint x="490" y="170" as="sourcePoint" />
            <mxPoint x="630" y="170" as="targetPoint" />
          </mxGeometry>
        </mxCell>
        <mxCell id="swAFyOteLmv79kuXvs0G-157" value="" style="shape=xor;whiteSpace=wrap;html=1;" vertex="1" parent="1">
          <mxGeometry x="1155" y="268.63" width="70" height="62.18" as="geometry" />
        </mxCell>
        <mxCell id="swAFyOteLmv79kuXvs0G-198" style="edgeStyle=orthogonalEdgeStyle;rounded=0;orthogonalLoop=1;jettySize=auto;html=1;exitX=1;exitY=0.5;exitDx=0;exitDy=0;exitPerimeter=0;" edge="1" parent="1" source="swAFyOteLmv79kuXvs0G-158">
          <mxGeometry relative="1" as="geometry">
            <mxPoint x="1470" y="283.8947368421053" as="targetPoint" />
          </mxGeometry>
        </mxCell>
        <mxCell id="swAFyOteLmv79kuXvs0G-158" value="" style="shape=xor;whiteSpace=wrap;html=1;" vertex="1" parent="1">
          <mxGeometry x="1310" y="253" width="70" height="62.18" as="geometry" />
        </mxCell>
        <mxCell id="swAFyOteLmv79kuXvs0G-159" value="" style="shape=xor;whiteSpace=wrap;html=1;" vertex="1" parent="1">
          <mxGeometry x="1003" y="233.00000000000003" width="70" height="62.18" as="geometry" />
        </mxCell>
        <mxCell id="swAFyOteLmv79kuXvs0G-160" value="" style="shape=xor;whiteSpace=wrap;html=1;" vertex="1" parent="1">
          <mxGeometry x="1003" y="313.54" width="70" height="62.18" as="geometry" />
        </mxCell>
        <mxCell id="swAFyOteLmv79kuXvs0G-165" value="OR" style="text;strokeColor=none;align=center;fillColor=none;html=1;verticalAlign=middle;whiteSpace=wrap;rounded=0;fontStyle=1" vertex="1" parent="1">
          <mxGeometry x="1033" y="334.63" width="10" height="20" as="geometry" />
        </mxCell>
        <mxCell id="swAFyOteLmv79kuXvs0G-168" value="OR" style="text;strokeColor=none;align=center;fillColor=none;html=1;verticalAlign=middle;whiteSpace=wrap;rounded=0;fontStyle=1" vertex="1" parent="1">
          <mxGeometry x="1033" y="256.26" width="10" height="20" as="geometry" />
        </mxCell>
        <mxCell id="swAFyOteLmv79kuXvs0G-169" value="OR" style="text;strokeColor=none;align=center;fillColor=none;html=1;verticalAlign=middle;whiteSpace=wrap;rounded=0;fontStyle=1" vertex="1" parent="1">
          <mxGeometry x="1340" y="274.09000000000003" width="10" height="20" as="geometry" />
        </mxCell>
        <mxCell id="swAFyOteLmv79kuXvs0G-170" value="OR" style="text;strokeColor=none;align=center;fillColor=none;html=1;verticalAlign=middle;whiteSpace=wrap;rounded=0;fontStyle=1" vertex="1" parent="1">
          <mxGeometry x="1185" y="289.73" width="10" height="20" as="geometry" />
        </mxCell>
        <mxCell id="swAFyOteLmv79kuXvs0G-173" style="edgeStyle=orthogonalEdgeStyle;rounded=0;orthogonalLoop=1;jettySize=auto;html=1;exitX=1;exitY=0.5;exitDx=0;exitDy=0;exitPerimeter=0;entryX=0.175;entryY=0.25;entryDx=0;entryDy=0;entryPerimeter=0;" edge="1" parent="1" source="swAFyOteLmv79kuXvs0G-93" target="swAFyOteLmv79kuXvs0G-160">
          <mxGeometry relative="1" as="geometry">
            <Array as="points">
              <mxPoint x="900" y="58" />
              <mxPoint x="900" y="329" />
            </Array>
          </mxGeometry>
        </mxCell>
        <mxCell id="swAFyOteLmv79kuXvs0G-174" style="edgeStyle=orthogonalEdgeStyle;rounded=0;orthogonalLoop=1;jettySize=auto;html=1;exitX=1;exitY=0.5;exitDx=0;exitDy=0;exitPerimeter=0;entryX=0.175;entryY=0.75;entryDx=0;entryDy=0;entryPerimeter=0;" edge="1" parent="1" source="swAFyOteLmv79kuXvs0G-81" target="swAFyOteLmv79kuXvs0G-160">
          <mxGeometry relative="1" as="geometry">
            <Array as="points">
              <mxPoint x="900" y="458" />
              <mxPoint x="900" y="360" />
            </Array>
          </mxGeometry>
        </mxCell>
        <mxCell id="swAFyOteLmv79kuXvs0G-175" value="a[1] &amp;amp; a[0]" style="text;strokeColor=none;align=center;fillColor=none;html=1;verticalAlign=middle;whiteSpace=wrap;rounded=0;fontStyle=1" vertex="1" parent="1">
          <mxGeometry x="700" y="30" width="80" height="20" as="geometry" />
        </mxCell>
        <mxCell id="swAFyOteLmv79kuXvs0G-176" value="~b[1] &amp;amp; ~b[0]" style="text;strokeColor=none;align=center;fillColor=none;html=1;verticalAlign=middle;whiteSpace=wrap;rounded=0;fontStyle=1" vertex="1" parent="1">
          <mxGeometry x="680" y="467.01" width="120" height="20" as="geometry" />
        </mxCell>
        <mxCell id="swAFyOteLmv79kuXvs0G-183" value="a[1] &amp;amp; ~b[1]" style="text;strokeColor=none;align=center;fillColor=none;html=1;verticalAlign=middle;whiteSpace=wrap;rounded=0;fontStyle=1" vertex="1" parent="1">
          <mxGeometry x="700" y="228.63" width="80" height="20" as="geometry" />
        </mxCell>
        <mxCell id="swAFyOteLmv79kuXvs0G-185" style="edgeStyle=orthogonalEdgeStyle;rounded=0;orthogonalLoop=1;jettySize=auto;html=1;exitX=1;exitY=0.5;exitDx=0;exitDy=0;exitPerimeter=0;entryX=0.198;entryY=0.307;entryDx=0;entryDy=0;entryPerimeter=0;" edge="1" parent="1" source="swAFyOteLmv79kuXvs0G-111" target="swAFyOteLmv79kuXvs0G-159">
          <mxGeometry relative="1" as="geometry" />
        </mxCell>
        <mxCell id="swAFyOteLmv79kuXvs0G-186" style="edgeStyle=orthogonalEdgeStyle;rounded=0;orthogonalLoop=1;jettySize=auto;html=1;entryX=0.211;entryY=0.657;entryDx=0;entryDy=0;entryPerimeter=0;" edge="1" parent="1" source="swAFyOteLmv79kuXvs0G-113" target="swAFyOteLmv79kuXvs0G-159">
          <mxGeometry relative="1" as="geometry">
            <Array as="points">
              <mxPoint x="970" y="348" />
              <mxPoint x="970" y="274" />
            </Array>
          </mxGeometry>
        </mxCell>
        <mxCell id="swAFyOteLmv79kuXvs0G-187" value="a[0] &amp;amp; ~b[1]" style="text;strokeColor=none;align=center;fillColor=none;html=1;verticalAlign=middle;whiteSpace=wrap;rounded=0;fontStyle=1" vertex="1" parent="1">
          <mxGeometry x="701" y="317.82" width="80" height="20" as="geometry" />
        </mxCell>
        <mxCell id="swAFyOteLmv79kuXvs0G-190" style="edgeStyle=orthogonalEdgeStyle;rounded=0;orthogonalLoop=1;jettySize=auto;html=1;exitX=1;exitY=0.5;exitDx=0;exitDy=0;exitPerimeter=0;entryX=0.175;entryY=0.25;entryDx=0;entryDy=0;entryPerimeter=0;" edge="1" parent="1" source="swAFyOteLmv79kuXvs0G-159" target="swAFyOteLmv79kuXvs0G-157">
          <mxGeometry relative="1" as="geometry" />
        </mxCell>
        <mxCell id="swAFyOteLmv79kuXvs0G-191" style="edgeStyle=orthogonalEdgeStyle;rounded=0;orthogonalLoop=1;jettySize=auto;html=1;exitX=1;exitY=0.5;exitDx=0;exitDy=0;exitPerimeter=0;entryX=0.175;entryY=0.75;entryDx=0;entryDy=0;entryPerimeter=0;" edge="1" parent="1" source="swAFyOteLmv79kuXvs0G-160" target="swAFyOteLmv79kuXvs0G-157">
          <mxGeometry relative="1" as="geometry" />
        </mxCell>
        <mxCell id="swAFyOteLmv79kuXvs0G-192" value="(a[1] &amp;amp; ~b[1]) | a[0] &amp;amp; ~b[1]" style="text;strokeColor=none;align=center;fillColor=none;html=1;verticalAlign=middle;whiteSpace=wrap;rounded=0;fontStyle=1" vertex="1" parent="1">
          <mxGeometry x="1073" y="233" width="157" height="20" as="geometry" />
        </mxCell>
        <mxCell id="swAFyOteLmv79kuXvs0G-193" value="(a[1] &amp;amp; a[0]) | ~b[1] &amp;amp; ~b[0]" style="text;strokeColor=none;align=center;fillColor=none;html=1;verticalAlign=middle;whiteSpace=wrap;rounded=0;fontStyle=1" vertex="1" parent="1">
          <mxGeometry x="1073" y="355.72" width="157" height="20" as="geometry" />
        </mxCell>
        <mxCell id="swAFyOteLmv79kuXvs0G-194" style="edgeStyle=orthogonalEdgeStyle;rounded=0;orthogonalLoop=1;jettySize=auto;html=1;exitX=1;exitY=0.5;exitDx=0;exitDy=0;exitPerimeter=0;entryX=0.175;entryY=0.75;entryDx=0;entryDy=0;entryPerimeter=0;" edge="1" parent="1" source="swAFyOteLmv79kuXvs0G-157" target="swAFyOteLmv79kuXvs0G-158">
          <mxGeometry relative="1" as="geometry" />
        </mxCell>
        <mxCell id="swAFyOteLmv79kuXvs0G-196" style="edgeStyle=orthogonalEdgeStyle;rounded=0;orthogonalLoop=1;jettySize=auto;html=1;entryX=0.175;entryY=0.25;entryDx=0;entryDy=0;entryPerimeter=0;" edge="1" parent="1" source="swAFyOteLmv79kuXvs0G-109" target="swAFyOteLmv79kuXvs0G-158">
          <mxGeometry relative="1" as="geometry">
            <Array as="points">
              <mxPoint x="1270" y="156" />
              <mxPoint x="1270" y="269" />
            </Array>
          </mxGeometry>
        </mxCell>
        <mxCell id="swAFyOteLmv79kuXvs0G-197" value="a[1] &amp;amp; ~b[0]" style="text;strokeColor=none;align=center;fillColor=none;html=1;verticalAlign=middle;whiteSpace=wrap;rounded=0;fontStyle=1" vertex="1" parent="1">
          <mxGeometry x="701" y="125.82" width="80" height="20" as="geometry" />
        </mxCell>
        <mxCell id="swAFyOteLmv79kuXvs0G-199" value="red" style="text;strokeColor=none;align=center;fillColor=none;html=1;verticalAlign=middle;whiteSpace=wrap;rounded=0;fontStyle=1" vertex="1" parent="1">
          <mxGeometry x="1480" y="274.09" width="10" height="20" as="geometry" />
        </mxCell>
        <mxCell id="swAFyOteLmv79kuXvs0G-200" value="" style="shape=or;whiteSpace=wrap;html=1;" vertex="1" parent="1">
          <mxGeometry x="641" y="980" width="55" height="75.63" as="geometry" />
        </mxCell>
        <mxCell id="swAFyOteLmv79kuXvs0G-201" value="AND" style="text;strokeColor=none;align=center;fillColor=none;html=1;verticalAlign=middle;whiteSpace=wrap;rounded=0;fontStyle=1" vertex="1" parent="1">
          <mxGeometry x="661" y="1007.8199999999999" width="10" height="20" as="geometry" />
        </mxCell>
        <mxCell id="swAFyOteLmv79kuXvs0G-202" value="" style="shape=or;whiteSpace=wrap;html=1;" vertex="1" parent="1">
          <mxGeometry x="641" y="580" width="55" height="75.63" as="geometry" />
        </mxCell>
        <mxCell id="swAFyOteLmv79kuXvs0G-203" value="AND" style="text;strokeColor=none;align=center;fillColor=none;html=1;verticalAlign=middle;whiteSpace=wrap;rounded=0;fontStyle=1" vertex="1" parent="1">
          <mxGeometry x="661" y="607.8199999999999" width="10" height="20" as="geometry" />
        </mxCell>
        <mxCell id="swAFyOteLmv79kuXvs0G-204" value="" style="shape=or;whiteSpace=wrap;html=1;" vertex="1" parent="1">
          <mxGeometry x="641" y="678" width="55" height="75.63" as="geometry" />
        </mxCell>
        <mxCell id="swAFyOteLmv79kuXvs0G-205" value="AND" style="text;strokeColor=none;align=center;fillColor=none;html=1;verticalAlign=middle;whiteSpace=wrap;rounded=0;fontStyle=1" vertex="1" parent="1">
          <mxGeometry x="661" y="705.8199999999999" width="10" height="20" as="geometry" />
        </mxCell>
        <mxCell id="swAFyOteLmv79kuXvs0G-206" value="" style="shape=or;whiteSpace=wrap;html=1;" vertex="1" parent="1">
          <mxGeometry x="641" y="774.37" width="55" height="75.63" as="geometry" />
        </mxCell>
        <mxCell id="swAFyOteLmv79kuXvs0G-207" value="AND" style="text;strokeColor=none;align=center;fillColor=none;html=1;verticalAlign=middle;whiteSpace=wrap;rounded=0;fontStyle=1" vertex="1" parent="1">
          <mxGeometry x="661" y="802.19" width="10" height="20" as="geometry" />
        </mxCell>
        <mxCell id="swAFyOteLmv79kuXvs0G-208" value="" style="shape=or;whiteSpace=wrap;html=1;" vertex="1" parent="1">
          <mxGeometry x="641" y="885" width="55" height="75.63" as="geometry" />
        </mxCell>
        <mxCell id="swAFyOteLmv79kuXvs0G-209" value="AND" style="text;strokeColor=none;align=center;fillColor=none;html=1;verticalAlign=middle;whiteSpace=wrap;rounded=0;fontStyle=1" vertex="1" parent="1">
          <mxGeometry x="661" y="912.8199999999999" width="10" height="20" as="geometry" />
        </mxCell>
        <mxCell id="swAFyOteLmv79kuXvs0G-220" value="" style="shape=xor;whiteSpace=wrap;html=1;" vertex="1" parent="1">
          <mxGeometry x="1156" y="828.63" width="70" height="62.18" as="geometry" />
        </mxCell>
        <mxCell id="swAFyOteLmv79kuXvs0G-221" style="edgeStyle=orthogonalEdgeStyle;rounded=0;orthogonalLoop=1;jettySize=auto;html=1;exitX=1;exitY=0.5;exitDx=0;exitDy=0;exitPerimeter=0;" edge="1" parent="1" source="swAFyOteLmv79kuXvs0G-222">
          <mxGeometry relative="1" as="geometry">
            <mxPoint x="1470" y="874.5247368421053" as="targetPoint" />
          </mxGeometry>
        </mxCell>
        <mxCell id="swAFyOteLmv79kuXvs0G-222" value="" style="shape=xor;whiteSpace=wrap;html=1;" vertex="1" parent="1">
          <mxGeometry x="1310" y="843.63" width="70" height="62.18" as="geometry" />
        </mxCell>
        <mxCell id="swAFyOteLmv79kuXvs0G-223" value="" style="shape=xor;whiteSpace=wrap;html=1;" vertex="1" parent="1">
          <mxGeometry x="1004" y="793" width="70" height="62.18" as="geometry" />
        </mxCell>
        <mxCell id="swAFyOteLmv79kuXvs0G-224" value="" style="shape=xor;whiteSpace=wrap;html=1;" vertex="1" parent="1">
          <mxGeometry x="1004" y="876.54" width="70" height="62.18" as="geometry" />
        </mxCell>
        <mxCell id="swAFyOteLmv79kuXvs0G-225" value="OR" style="text;strokeColor=none;align=center;fillColor=none;html=1;verticalAlign=middle;whiteSpace=wrap;rounded=0;fontStyle=1" vertex="1" parent="1">
          <mxGeometry x="1034" y="897.63" width="10" height="20" as="geometry" />
        </mxCell>
        <mxCell id="swAFyOteLmv79kuXvs0G-226" value="OR" style="text;strokeColor=none;align=center;fillColor=none;html=1;verticalAlign=middle;whiteSpace=wrap;rounded=0;fontStyle=1" vertex="1" parent="1">
          <mxGeometry x="1034" y="816.26" width="10" height="20" as="geometry" />
        </mxCell>
        <mxCell id="swAFyOteLmv79kuXvs0G-227" value="OR" style="text;strokeColor=none;align=center;fillColor=none;html=1;verticalAlign=middle;whiteSpace=wrap;rounded=0;fontStyle=1" vertex="1" parent="1">
          <mxGeometry x="1340" y="861.72" width="10" height="20" as="geometry" />
        </mxCell>
        <mxCell id="swAFyOteLmv79kuXvs0G-228" value="OR" style="text;strokeColor=none;align=center;fillColor=none;html=1;verticalAlign=middle;whiteSpace=wrap;rounded=0;fontStyle=1" vertex="1" parent="1">
          <mxGeometry x="1186" y="849.73" width="10" height="20" as="geometry" />
        </mxCell>
        <mxCell id="swAFyOteLmv79kuXvs0G-231" value="~a[1] &amp;amp; ~a[0]" style="text;strokeColor=none;align=center;fillColor=none;html=1;verticalAlign=middle;whiteSpace=wrap;rounded=0;fontStyle=1" vertex="1" parent="1">
          <mxGeometry x="701" y="590" width="80" height="20" as="geometry" />
        </mxCell>
        <mxCell id="swAFyOteLmv79kuXvs0G-232" value="~a[0] &amp;amp; b[1]" style="text;strokeColor=none;align=center;fillColor=none;html=1;verticalAlign=middle;whiteSpace=wrap;rounded=0;fontStyle=1" vertex="1" parent="1">
          <mxGeometry x="681" y="1027.01" width="120" height="20" as="geometry" />
        </mxCell>
        <mxCell id="swAFyOteLmv79kuXvs0G-233" value="~a[1] &amp;amp; b[0]" style="text;strokeColor=none;align=center;fillColor=none;html=1;verticalAlign=middle;whiteSpace=wrap;rounded=0;fontStyle=1" vertex="1" parent="1">
          <mxGeometry x="701" y="788.63" width="80" height="20" as="geometry" />
        </mxCell>
        <mxCell id="swAFyOteLmv79kuXvs0G-236" value="~a[1] &amp;amp; b[1]" style="text;strokeColor=none;align=center;fillColor=none;html=1;verticalAlign=middle;whiteSpace=wrap;rounded=0;fontStyle=1" vertex="1" parent="1">
          <mxGeometry x="702" y="877.8199999999999" width="80" height="20" as="geometry" />
        </mxCell>
        <mxCell id="swAFyOteLmv79kuXvs0G-237" style="edgeStyle=orthogonalEdgeStyle;rounded=0;orthogonalLoop=1;jettySize=auto;html=1;exitX=1;exitY=0.5;exitDx=0;exitDy=0;exitPerimeter=0;entryX=0.175;entryY=0.25;entryDx=0;entryDy=0;entryPerimeter=0;" edge="1" parent="1" source="swAFyOteLmv79kuXvs0G-223" target="swAFyOteLmv79kuXvs0G-220">
          <mxGeometry relative="1" as="geometry" />
        </mxCell>
        <mxCell id="swAFyOteLmv79kuXvs0G-238" style="edgeStyle=orthogonalEdgeStyle;rounded=0;orthogonalLoop=1;jettySize=auto;html=1;exitX=1;exitY=0.5;exitDx=0;exitDy=0;exitPerimeter=0;entryX=0.175;entryY=0.75;entryDx=0;entryDy=0;entryPerimeter=0;" edge="1" parent="1" source="swAFyOteLmv79kuXvs0G-224" target="swAFyOteLmv79kuXvs0G-220">
          <mxGeometry relative="1" as="geometry" />
        </mxCell>
        <mxCell id="swAFyOteLmv79kuXvs0G-239" value="(~a[1] &amp;amp; b[0]) | ~a[1] &amp;amp; b[1]" style="text;strokeColor=none;align=center;fillColor=none;html=1;verticalAlign=middle;whiteSpace=wrap;rounded=0;fontStyle=1" vertex="1" parent="1">
          <mxGeometry x="1074" y="918.72" width="157" height="20" as="geometry" />
        </mxCell>
        <mxCell id="swAFyOteLmv79kuXvs0G-240" value="(~a[1] &amp;amp; ~a[0]) | b[1] &amp;amp; b[0]" style="text;strokeColor=none;align=center;fillColor=none;html=1;verticalAlign=middle;whiteSpace=wrap;rounded=0;fontStyle=1" vertex="1" parent="1">
          <mxGeometry x="1050" y="788.63" width="206" height="20" as="geometry" />
        </mxCell>
        <mxCell id="swAFyOteLmv79kuXvs0G-243" value="b[1] &amp;amp; b[0]" style="text;strokeColor=none;align=center;fillColor=none;html=1;verticalAlign=middle;whiteSpace=wrap;rounded=0;fontStyle=1" vertex="1" parent="1">
          <mxGeometry x="702" y="685.8199999999999" width="80" height="20" as="geometry" />
        </mxCell>
        <mxCell id="swAFyOteLmv79kuXvs0G-245" style="edgeStyle=orthogonalEdgeStyle;rounded=0;orthogonalLoop=1;jettySize=auto;html=1;exitX=1;exitY=0.5;exitDx=0;exitDy=0;entryX=0;entryY=0.25;entryDx=0;entryDy=0;entryPerimeter=0;" edge="1" parent="1" source="swAFyOteLmv79kuXvs0G-19" target="swAFyOteLmv79kuXvs0G-202">
          <mxGeometry relative="1" as="geometry">
            <Array as="points">
              <mxPoint x="470" y="200" />
              <mxPoint x="470" y="599" />
            </Array>
          </mxGeometry>
        </mxCell>
        <mxCell id="swAFyOteLmv79kuXvs0G-246" style="edgeStyle=orthogonalEdgeStyle;rounded=0;orthogonalLoop=1;jettySize=auto;html=1;exitX=1;exitY=0.5;exitDx=0;exitDy=0;entryX=0;entryY=0.75;entryDx=0;entryDy=0;entryPerimeter=0;" edge="1" parent="1">
          <mxGeometry relative="1" as="geometry">
            <mxPoint x="340.99509803921353" y="279.29499999999996" as="sourcePoint" />
            <mxPoint x="641" y="636.3824999999999" as="targetPoint" />
            <Array as="points">
              <mxPoint x="440" y="279.66" />
              <mxPoint x="440" y="636.66" />
            </Array>
          </mxGeometry>
        </mxCell>
        <mxCell id="swAFyOteLmv79kuXvs0G-249" value="" style="endArrow=none;html=1;rounded=0;startArrow=oval;startFill=1;" edge="1" parent="1">
          <mxGeometry width="50" height="50" relative="1" as="geometry">
            <mxPoint x="220" y="400" as="sourcePoint" />
            <mxPoint x="220" y="700" as="targetPoint" />
          </mxGeometry>
        </mxCell>
        <mxCell id="swAFyOteLmv79kuXvs0G-251" value="" style="endArrow=classic;html=1;rounded=0;entryX=0;entryY=0.25;entryDx=0;entryDy=0;entryPerimeter=0;" edge="1" parent="1">
          <mxGeometry width="50" height="50" relative="1" as="geometry">
            <mxPoint x="220" y="700" as="sourcePoint" />
            <mxPoint x="641" y="699.9075" as="targetPoint" />
          </mxGeometry>
        </mxCell>
        <mxCell id="swAFyOteLmv79kuXvs0G-252" value="" style="endArrow=none;html=1;rounded=0;startArrow=oval;startFill=1;" edge="1" parent="1">
          <mxGeometry width="50" height="50" relative="1" as="geometry">
            <mxPoint x="159" y="479.63" as="sourcePoint" />
            <mxPoint x="159" y="739.63" as="targetPoint" />
          </mxGeometry>
        </mxCell>
        <mxCell id="swAFyOteLmv79kuXvs0G-253" value="" style="endArrow=classic;html=1;rounded=0;entryX=0;entryY=0.25;entryDx=0;entryDy=0;entryPerimeter=0;" edge="1" parent="1">
          <mxGeometry width="50" height="50" relative="1" as="geometry">
            <mxPoint x="160" y="740" as="sourcePoint" />
            <mxPoint x="641" y="739.9975000000001" as="targetPoint" />
          </mxGeometry>
        </mxCell>
        <mxCell id="swAFyOteLmv79kuXvs0G-254" value="" style="endArrow=none;html=1;rounded=0;startArrow=oval;startFill=1;" edge="1" parent="1">
          <mxGeometry width="50" height="50" relative="1" as="geometry">
            <mxPoint x="380" y="200" as="sourcePoint" />
            <mxPoint x="380" y="800" as="targetPoint" />
          </mxGeometry>
        </mxCell>
        <mxCell id="swAFyOteLmv79kuXvs0G-255" value="" style="endArrow=none;html=1;rounded=0;startArrow=oval;startFill=1;" edge="1" parent="1">
          <mxGeometry width="50" height="50" relative="1" as="geometry">
            <mxPoint x="159" y="739.63" as="sourcePoint" />
            <mxPoint x="159" y="829.63" as="targetPoint" />
          </mxGeometry>
        </mxCell>
        <mxCell id="swAFyOteLmv79kuXvs0G-256" value="" style="endArrow=classic;html=1;rounded=0;entryX=0;entryY=0.25;entryDx=0;entryDy=0;entryPerimeter=0;" edge="1" parent="1">
          <mxGeometry width="50" height="50" relative="1" as="geometry">
            <mxPoint x="159" y="829" as="sourcePoint" />
            <mxPoint x="640" y="828.6275" as="targetPoint" />
          </mxGeometry>
        </mxCell>
        <mxCell id="swAFyOteLmv79kuXvs0G-257" value="" style="endArrow=classic;html=1;rounded=0;" edge="1" parent="1">
          <mxGeometry width="50" height="50" relative="1" as="geometry">
            <mxPoint x="380" y="800.16" as="sourcePoint" />
            <mxPoint x="640" y="800" as="targetPoint" />
          </mxGeometry>
        </mxCell>
        <mxCell id="swAFyOteLmv79kuXvs0G-258" value="" style="endArrow=none;html=1;rounded=0;startArrow=oval;startFill=1;" edge="1" parent="1">
          <mxGeometry width="50" height="50" relative="1" as="geometry">
            <mxPoint x="220" y="699.8199999999999" as="sourcePoint" />
            <mxPoint x="220" y="940" as="targetPoint" />
          </mxGeometry>
        </mxCell>
        <mxCell id="swAFyOteLmv79kuXvs0G-259" value="" style="endArrow=none;html=1;rounded=0;startArrow=oval;startFill=1;" edge="1" parent="1">
          <mxGeometry width="50" height="50" relative="1" as="geometry">
            <mxPoint x="380" y="800" as="sourcePoint" />
            <mxPoint x="380" y="900" as="targetPoint" />
          </mxGeometry>
        </mxCell>
        <mxCell id="swAFyOteLmv79kuXvs0G-260" value="" style="endArrow=classic;html=1;rounded=0;" edge="1" parent="1">
          <mxGeometry width="50" height="50" relative="1" as="geometry">
            <mxPoint x="380" y="899.97" as="sourcePoint" />
            <mxPoint x="640" y="899.8100000000001" as="targetPoint" />
          </mxGeometry>
        </mxCell>
        <mxCell id="swAFyOteLmv79kuXvs0G-261" value="" style="endArrow=classic;html=1;rounded=0;" edge="1" parent="1">
          <mxGeometry width="50" height="50" relative="1" as="geometry">
            <mxPoint x="220" y="939" as="sourcePoint" />
            <mxPoint x="641" y="936.82" as="targetPoint" />
          </mxGeometry>
        </mxCell>
        <mxCell id="swAFyOteLmv79kuXvs0G-269" value="" style="endArrow=none;html=1;rounded=0;startArrow=oval;startFill=1;" edge="1" parent="1">
          <mxGeometry width="50" height="50" relative="1" as="geometry">
            <mxPoint x="440" y="636" as="sourcePoint" />
            <mxPoint x="440" y="1000" as="targetPoint" />
          </mxGeometry>
        </mxCell>
        <mxCell id="swAFyOteLmv79kuXvs0G-270" value="" style="endArrow=none;html=1;rounded=0;startArrow=oval;startFill=1;" edge="1" parent="1">
          <mxGeometry width="50" height="50" relative="1" as="geometry">
            <mxPoint x="220" y="939" as="sourcePoint" />
            <mxPoint x="220" y="1038" as="targetPoint" />
          </mxGeometry>
        </mxCell>
        <mxCell id="swAFyOteLmv79kuXvs0G-271" value="" style="endArrow=classic;html=1;rounded=0;" edge="1" parent="1">
          <mxGeometry width="50" height="50" relative="1" as="geometry">
            <mxPoint x="220" y="1038.1" as="sourcePoint" />
            <mxPoint x="641" y="1035.92" as="targetPoint" />
          </mxGeometry>
        </mxCell>
        <mxCell id="swAFyOteLmv79kuXvs0G-272" value="" style="endArrow=classic;html=1;rounded=0;" edge="1" parent="1">
          <mxGeometry width="50" height="50" relative="1" as="geometry">
            <mxPoint x="440" y="1000" as="sourcePoint" />
            <mxPoint x="641" y="1000" as="targetPoint" />
          </mxGeometry>
        </mxCell>
        <mxCell id="swAFyOteLmv79kuXvs0G-274" style="edgeStyle=orthogonalEdgeStyle;rounded=0;orthogonalLoop=1;jettySize=auto;html=1;exitX=1;exitY=0.5;exitDx=0;exitDy=0;exitPerimeter=0;entryX=0.175;entryY=0.25;entryDx=0;entryDy=0;entryPerimeter=0;" edge="1" parent="1" source="swAFyOteLmv79kuXvs0G-202" target="swAFyOteLmv79kuXvs0G-223">
          <mxGeometry relative="1" as="geometry">
            <Array as="points">
              <mxPoint x="970" y="618" />
              <mxPoint x="970" y="809" />
            </Array>
          </mxGeometry>
        </mxCell>
        <mxCell id="swAFyOteLmv79kuXvs0G-275" style="edgeStyle=orthogonalEdgeStyle;rounded=0;orthogonalLoop=1;jettySize=auto;html=1;exitX=1;exitY=0.5;exitDx=0;exitDy=0;exitPerimeter=0;entryX=0.175;entryY=0.75;entryDx=0;entryDy=0;entryPerimeter=0;" edge="1" parent="1" source="swAFyOteLmv79kuXvs0G-204" target="swAFyOteLmv79kuXvs0G-223">
          <mxGeometry relative="1" as="geometry">
            <Array as="points">
              <mxPoint x="920" y="716" />
              <mxPoint x="920" y="840" />
            </Array>
          </mxGeometry>
        </mxCell>
        <mxCell id="swAFyOteLmv79kuXvs0G-277" style="edgeStyle=orthogonalEdgeStyle;rounded=0;orthogonalLoop=1;jettySize=auto;html=1;exitX=1;exitY=0.5;exitDx=0;exitDy=0;exitPerimeter=0;entryX=0.175;entryY=0.75;entryDx=0;entryDy=0;entryPerimeter=0;" edge="1" parent="1" source="swAFyOteLmv79kuXvs0G-208" target="swAFyOteLmv79kuXvs0G-224">
          <mxGeometry relative="1" as="geometry" />
        </mxCell>
        <mxCell id="swAFyOteLmv79kuXvs0G-278" style="edgeStyle=orthogonalEdgeStyle;rounded=0;orthogonalLoop=1;jettySize=auto;html=1;exitX=1;exitY=0.5;exitDx=0;exitDy=0;exitPerimeter=0;entryX=0.175;entryY=0.25;entryDx=0;entryDy=0;entryPerimeter=0;" edge="1" parent="1" source="swAFyOteLmv79kuXvs0G-206" target="swAFyOteLmv79kuXvs0G-224">
          <mxGeometry relative="1" as="geometry">
            <Array as="points">
              <mxPoint x="880" y="812" />
              <mxPoint x="880" y="892" />
            </Array>
          </mxGeometry>
        </mxCell>
        <mxCell id="swAFyOteLmv79kuXvs0G-279" style="edgeStyle=orthogonalEdgeStyle;rounded=0;orthogonalLoop=1;jettySize=auto;html=1;exitX=1;exitY=0.5;exitDx=0;exitDy=0;exitPerimeter=0;entryX=0.175;entryY=0.25;entryDx=0;entryDy=0;entryPerimeter=0;" edge="1" parent="1" source="swAFyOteLmv79kuXvs0G-220" target="swAFyOteLmv79kuXvs0G-222">
          <mxGeometry relative="1" as="geometry" />
        </mxCell>
        <mxCell id="swAFyOteLmv79kuXvs0G-281" style="edgeStyle=orthogonalEdgeStyle;rounded=0;orthogonalLoop=1;jettySize=auto;html=1;exitX=1;exitY=0.5;exitDx=0;exitDy=0;exitPerimeter=0;entryX=0.175;entryY=0.75;entryDx=0;entryDy=0;entryPerimeter=0;" edge="1" parent="1">
          <mxGeometry relative="1" as="geometry">
            <mxPoint x="695" y="1017.8149999999998" as="sourcePoint" />
            <mxPoint x="1321.25" y="890.2650000000003" as="targetPoint" />
            <Array as="points">
              <mxPoint x="1270" y="1018" />
              <mxPoint x="1270" y="890" />
            </Array>
          </mxGeometry>
        </mxCell>
        <mxCell id="swAFyOteLmv79kuXvs0G-282" value="green" style="text;strokeColor=none;align=center;fillColor=none;html=1;verticalAlign=middle;whiteSpace=wrap;rounded=0;fontStyle=1" vertex="1" parent="1">
          <mxGeometry x="1490" y="864.72" width="10" height="20" as="geometry" />
        </mxCell>
        <mxCell id="swAFyOteLmv79kuXvs0G-284" value="" style="shape=xor;whiteSpace=wrap;html=1;" vertex="1" parent="1">
          <mxGeometry x="1150" y="517.8199999999999" width="70" height="62.18" as="geometry" />
        </mxCell>
        <mxCell id="swAFyOteLmv79kuXvs0G-285" value="OR" style="text;strokeColor=none;align=center;fillColor=none;html=1;verticalAlign=middle;whiteSpace=wrap;rounded=0;fontStyle=1" vertex="1" parent="1">
          <mxGeometry x="1180" y="538.9200000000001" width="10" height="20" as="geometry" />
        </mxCell>
        <mxCell id="swAFyOteLmv79kuXvs0G-286" style="edgeStyle=orthogonalEdgeStyle;rounded=0;orthogonalLoop=1;jettySize=auto;html=1;exitX=1;exitY=0.5;exitDx=0;exitDy=0;exitPerimeter=0;entryX=0.175;entryY=0.25;entryDx=0;entryDy=0;entryPerimeter=0;" edge="1" parent="1" source="swAFyOteLmv79kuXvs0G-111" target="swAFyOteLmv79kuXvs0G-284">
          <mxGeometry relative="1" as="geometry">
            <Array as="points">
              <mxPoint x="850" y="252" />
              <mxPoint x="850" y="533" />
            </Array>
          </mxGeometry>
        </mxCell>
        <mxCell id="swAFyOteLmv79kuXvs0G-287" value="" style="endArrow=none;html=1;rounded=0;startArrow=oval;startFill=1;" edge="1" parent="1">
          <mxGeometry width="50" height="50" relative="1" as="geometry">
            <mxPoint x="850" y="252" as="sourcePoint" />
            <mxPoint x="850" y="312" as="targetPoint" />
          </mxGeometry>
        </mxCell>
        <mxCell id="swAFyOteLmv79kuXvs0G-288" style="edgeStyle=orthogonalEdgeStyle;rounded=0;orthogonalLoop=1;jettySize=auto;html=1;exitX=1;exitY=0.5;exitDx=0;exitDy=0;exitPerimeter=0;entryX=0.175;entryY=0.75;entryDx=0;entryDy=0;entryPerimeter=0;" edge="1" parent="1" source="swAFyOteLmv79kuXvs0G-208" target="swAFyOteLmv79kuXvs0G-284">
          <mxGeometry relative="1" as="geometry">
            <Array as="points">
              <mxPoint x="850" y="923" />
              <mxPoint x="850" y="565" />
            </Array>
          </mxGeometry>
        </mxCell>
        <mxCell id="swAFyOteLmv79kuXvs0G-289" value="" style="endArrow=none;html=1;rounded=0;startArrow=oval;startFill=1;" edge="1" parent="1">
          <mxGeometry width="50" height="50" relative="1" as="geometry">
            <mxPoint x="850" y="922.72" as="sourcePoint" />
            <mxPoint x="850" y="862.72" as="targetPoint" />
          </mxGeometry>
        </mxCell>
        <mxCell id="swAFyOteLmv79kuXvs0G-290" value="" style="shape=xor;whiteSpace=wrap;html=1;" vertex="1" parent="1">
          <mxGeometry x="1310" y="532.8199999999999" width="70" height="62.18" as="geometry" />
        </mxCell>
        <mxCell id="swAFyOteLmv79kuXvs0G-291" value="OR" style="text;strokeColor=none;align=center;fillColor=none;html=1;verticalAlign=middle;whiteSpace=wrap;rounded=0;fontStyle=1" vertex="1" parent="1">
          <mxGeometry x="1340" y="550.9100000000001" width="10" height="20" as="geometry" />
        </mxCell>
        <mxCell id="swAFyOteLmv79kuXvs0G-292" style="edgeStyle=orthogonalEdgeStyle;rounded=0;orthogonalLoop=1;jettySize=auto;html=1;exitX=1;exitY=0.5;exitDx=0;exitDy=0;exitPerimeter=0;entryX=0.175;entryY=0.25;entryDx=0;entryDy=0;entryPerimeter=0;" edge="1" parent="1" source="swAFyOteLmv79kuXvs0G-284" target="swAFyOteLmv79kuXvs0G-290">
          <mxGeometry relative="1" as="geometry" />
        </mxCell>
        <mxCell id="swAFyOteLmv79kuXvs0G-293" value="(a[1] &amp;amp; ~b[1]) | (~a[1] &amp;amp; b[1])" style="text;strokeColor=none;align=center;fillColor=none;html=1;verticalAlign=middle;whiteSpace=wrap;rounded=0;fontStyle=1" vertex="1" parent="1">
          <mxGeometry x="1155" y="497.82" width="165" height="20" as="geometry" />
        </mxCell>
        <mxCell id="swAFyOteLmv79kuXvs0G-294" value="" style="shape=or;whiteSpace=wrap;html=1;" vertex="1" parent="1">
          <mxGeometry x="637.5" y="1195" width="55" height="75.63" as="geometry" />
        </mxCell>
        <mxCell id="swAFyOteLmv79kuXvs0G-295" value="AND" style="text;strokeColor=none;align=center;fillColor=none;html=1;verticalAlign=middle;whiteSpace=wrap;rounded=0;fontStyle=1" vertex="1" parent="1">
          <mxGeometry x="657.5" y="1222.82" width="10" height="20" as="geometry" />
        </mxCell>
        <mxCell id="swAFyOteLmv79kuXvs0G-296" value="" style="shape=or;whiteSpace=wrap;html=1;" vertex="1" parent="1">
          <mxGeometry x="637.5" y="1100" width="55" height="75.63" as="geometry" />
        </mxCell>
        <mxCell id="swAFyOteLmv79kuXvs0G-297" value="AND" style="text;strokeColor=none;align=center;fillColor=none;html=1;verticalAlign=middle;whiteSpace=wrap;rounded=0;fontStyle=1" vertex="1" parent="1">
          <mxGeometry x="657.5" y="1127.82" width="10" height="20" as="geometry" />
        </mxCell>
        <mxCell id="swAFyOteLmv79kuXvs0G-298" value="" style="endArrow=none;html=1;rounded=0;startArrow=oval;startFill=1;" edge="1" parent="1">
          <mxGeometry width="50" height="50" relative="1" as="geometry">
            <mxPoint x="440" y="1000" as="sourcePoint" />
            <mxPoint x="440" y="1120" as="targetPoint" />
          </mxGeometry>
        </mxCell>
        <mxCell id="swAFyOteLmv79kuXvs0G-301" value="" style="endArrow=classic;html=1;rounded=0;entryX=-0.018;entryY=0.265;entryDx=0;entryDy=0;entryPerimeter=0;" edge="1" parent="1" target="swAFyOteLmv79kuXvs0G-296">
          <mxGeometry width="50" height="50" relative="1" as="geometry">
            <mxPoint x="440" y="1120" as="sourcePoint" />
            <mxPoint x="630" y="1120" as="targetPoint" />
          </mxGeometry>
        </mxCell>
        <mxCell id="swAFyOteLmv79kuXvs0G-302" value="" style="endArrow=none;html=1;rounded=0;startArrow=oval;startFill=1;" edge="1" parent="1">
          <mxGeometry width="50" height="50" relative="1" as="geometry">
            <mxPoint x="159" y="828.63" as="sourcePoint" />
            <mxPoint x="160" y="1160" as="targetPoint" />
          </mxGeometry>
        </mxCell>
        <mxCell id="swAFyOteLmv79kuXvs0G-304" value="" style="endArrow=classic;html=1;rounded=0;entryX=0.006;entryY=0.789;entryDx=0;entryDy=0;entryPerimeter=0;" edge="1" parent="1" target="swAFyOteLmv79kuXvs0G-296">
          <mxGeometry width="50" height="50" relative="1" as="geometry">
            <mxPoint x="160" y="1160" as="sourcePoint" />
            <mxPoint x="361" y="1160" as="targetPoint" />
          </mxGeometry>
        </mxCell>
        <mxCell id="swAFyOteLmv79kuXvs0G-306" value="" style="endArrow=none;html=1;rounded=0;startArrow=oval;startFill=1;" edge="1" parent="1">
          <mxGeometry width="50" height="50" relative="1" as="geometry">
            <mxPoint x="190" y="278.91999999999996" as="sourcePoint" />
            <mxPoint x="190" y="1210" as="targetPoint" />
          </mxGeometry>
        </mxCell>
        <mxCell id="swAFyOteLmv79kuXvs0G-307" value="" style="endArrow=classic;html=1;rounded=0;entryX=0.006;entryY=0.789;entryDx=0;entryDy=0;entryPerimeter=0;" edge="1" parent="1">
          <mxGeometry width="50" height="50" relative="1" as="geometry">
            <mxPoint x="190" y="1210" as="sourcePoint" />
            <mxPoint x="637.5" y="1210" as="targetPoint" />
          </mxGeometry>
        </mxCell>
        <mxCell id="swAFyOteLmv79kuXvs0G-308" value="" style="endArrow=none;html=1;rounded=0;startArrow=oval;startFill=1;" edge="1" parent="1">
          <mxGeometry width="50" height="50" relative="1" as="geometry">
            <mxPoint x="400" y="480" as="sourcePoint" />
            <mxPoint x="400" y="1260" as="targetPoint" />
          </mxGeometry>
        </mxCell>
        <mxCell id="swAFyOteLmv79kuXvs0G-309" value="" style="endArrow=classic;html=1;rounded=0;entryX=0.006;entryY=0.789;entryDx=0;entryDy=0;entryPerimeter=0;" edge="1" parent="1">
          <mxGeometry width="50" height="50" relative="1" as="geometry">
            <mxPoint x="400" y="1260" as="sourcePoint" />
            <mxPoint x="640" y="1260" as="targetPoint" />
          </mxGeometry>
        </mxCell>
        <mxCell id="swAFyOteLmv79kuXvs0G-310" value="~a[0] &amp;amp; b[0]" style="text;strokeColor=none;align=center;fillColor=none;html=1;verticalAlign=middle;whiteSpace=wrap;rounded=0;fontStyle=1" vertex="1" parent="1">
          <mxGeometry x="680" y="1107.82" width="120" height="20" as="geometry" />
        </mxCell>
        <mxCell id="swAFyOteLmv79kuXvs0G-311" value="a[0] &amp;amp; ~b[0]" style="text;strokeColor=none;align=center;fillColor=none;html=1;verticalAlign=middle;whiteSpace=wrap;rounded=0;fontStyle=1" vertex="1" parent="1">
          <mxGeometry x="682" y="1202.82" width="120" height="20" as="geometry" />
        </mxCell>
        <mxCell id="swAFyOteLmv79kuXvs0G-312" value="" style="shape=xor;whiteSpace=wrap;html=1;" vertex="1" parent="1">
          <mxGeometry x="1150" y="1147.82" width="70" height="62.18" as="geometry" />
        </mxCell>
        <mxCell id="swAFyOteLmv79kuXvs0G-313" value="OR" style="text;strokeColor=none;align=center;fillColor=none;html=1;verticalAlign=middle;whiteSpace=wrap;rounded=0;fontStyle=1" vertex="1" parent="1">
          <mxGeometry x="1180" y="1168.92" width="10" height="20" as="geometry" />
        </mxCell>
        <mxCell id="swAFyOteLmv79kuXvs0G-314" style="edgeStyle=orthogonalEdgeStyle;rounded=0;orthogonalLoop=1;jettySize=auto;html=1;exitX=1;exitY=0.5;exitDx=0;exitDy=0;exitPerimeter=0;entryX=0.175;entryY=0.25;entryDx=0;entryDy=0;entryPerimeter=0;" edge="1" parent="1" source="swAFyOteLmv79kuXvs0G-296" target="swAFyOteLmv79kuXvs0G-312">
          <mxGeometry relative="1" as="geometry" />
        </mxCell>
        <mxCell id="swAFyOteLmv79kuXvs0G-315" style="edgeStyle=orthogonalEdgeStyle;rounded=0;orthogonalLoop=1;jettySize=auto;html=1;exitX=1;exitY=0.5;exitDx=0;exitDy=0;exitPerimeter=0;entryX=0.175;entryY=0.75;entryDx=0;entryDy=0;entryPerimeter=0;" edge="1" parent="1" source="swAFyOteLmv79kuXvs0G-294" target="swAFyOteLmv79kuXvs0G-312">
          <mxGeometry relative="1" as="geometry" />
        </mxCell>
        <mxCell id="swAFyOteLmv79kuXvs0G-316" style="edgeStyle=orthogonalEdgeStyle;rounded=0;orthogonalLoop=1;jettySize=auto;html=1;exitX=1;exitY=0.5;exitDx=0;exitDy=0;exitPerimeter=0;entryX=0.175;entryY=0.75;entryDx=0;entryDy=0;entryPerimeter=0;" edge="1" parent="1" source="swAFyOteLmv79kuXvs0G-312" target="swAFyOteLmv79kuXvs0G-290">
          <mxGeometry relative="1" as="geometry">
            <Array as="points">
              <mxPoint x="1250" y="1179" />
              <mxPoint x="1250" y="579" />
              <mxPoint x="1322" y="579" />
            </Array>
          </mxGeometry>
        </mxCell>
        <mxCell id="swAFyOteLmv79kuXvs0G-331" value="(~a[0] &amp;amp; b[0]) | (a[0] &amp;amp; ~b[0])" style="text;strokeColor=none;align=center;fillColor=none;html=1;verticalAlign=middle;whiteSpace=wrap;rounded=0;fontStyle=1" vertex="1" parent="1">
          <mxGeometry x="1220" y="1190" width="170" height="20" as="geometry" />
        </mxCell>
        <mxCell id="swAFyOteLmv79kuXvs0G-336" style="edgeStyle=orthogonalEdgeStyle;rounded=0;orthogonalLoop=1;jettySize=auto;html=1;exitX=1;exitY=0.5;exitDx=0;exitDy=0;exitPerimeter=0;" edge="1" parent="1">
          <mxGeometry relative="1" as="geometry">
            <mxPoint x="1470" y="560.7147368421054" as="targetPoint" />
            <mxPoint x="1380" y="561.19" as="sourcePoint" />
          </mxGeometry>
        </mxCell>
        <mxCell id="swAFyOteLmv79kuXvs0G-337" value="blue" style="text;strokeColor=none;align=center;fillColor=none;html=1;verticalAlign=middle;whiteSpace=wrap;rounded=0;fontStyle=1" vertex="1" parent="1">
          <mxGeometry x="1490" y="550.9100000000001" width="10" height="20" as="geometry" />
        </mxCell>
      </root>
    </mxGraphModel>
  </diagram>
</mxfile>
